<?xml version="1.0" encoding="UTF-8" standalone="no"?>
<!DOCTYPE svg PUBLIC "-//W3C//DTD SVG 20010904//EN"
              "http://www.w3.org/TR/2001/REC-SVG-20010904/DTD/svg10.dtd">

<svg xmlns="http://www.w3.org/2000/svg"
     width="10.5444in" height="11.3778in"
     viewBox="0 0 949 1024">
  <path id="Selection"
        fill="none" stroke="black" stroke-width="1"
        d="M 284.00,196.00
           C 281.58,188.75 278.70,180.76 280.39,173.00
             281.74,166.78 287.02,162.59 290.96,149.00
             290.96,149.00 294.23,129.00 294.23,129.00
             297.30,121.67 304.03,119.53 306.06,115.83
             307.28,113.76 305.96,101.58 306.06,98.00
             306.16,84.64 317.08,66.60 324.88,56.00
             346.27,26.96 374.46,12.19 409.00,4.58
             418.65,2.45 432.23,0.02 442.00,0.00
             442.00,0.00 462.00,0.00 462.00,0.00
             478.47,0.03 500.89,4.60 517.00,8.63
             559.64,19.29 604.23,39.79 640.00,65.29
             663.07,81.73 688.67,104.00 703.95,128.00
             714.40,144.42 723.40,166.10 728.13,185.00
             729.80,191.71 732.33,206.37 731.91,213.00
             730.73,231.56 726.41,233.65 721.36,249.00
             716.58,263.50 722.91,272.23 708.00,283.00
             708.00,262.67 709.36,242.40 701.94,223.00
             686.13,181.70 646.73,169.75 609.00,156.66
             609.00,156.66 566.00,140.80 566.00,140.80
             566.00,140.80 512.00,119.75 512.00,119.75
             503.92,117.08 494.63,114.31 487.00,119.75
             480.89,123.93 477.97,130.56 474.75,137.00
             474.75,137.00 459.85,170.00 459.85,170.00
             459.85,170.00 441.78,208.00 441.78,208.00
             441.78,208.00 415.25,264.00 415.25,264.00
             415.25,264.00 403.26,289.00 403.26,289.00
             400.81,294.06 400.06,297.93 396.00,302.00
             396.00,302.00 406.27,235.00 406.27,235.00
             406.27,235.00 420.58,141.00 420.58,141.00
             420.58,141.00 428.00,92.00 428.00,92.00
             428.00,92.00 384.00,84.00 384.00,84.00
             384.00,84.00 373.71,121.00 373.71,121.00
             373.71,121.00 357.42,179.00 357.42,179.00
             357.42,179.00 322.72,296.00 322.72,296.00
             322.72,296.00 296.00,384.00 296.00,384.00
             296.00,384.00 311.00,384.00 311.00,384.00
             311.00,384.00 319.28,382.40 319.28,382.40
             319.28,382.40 323.63,370.00 323.63,370.00
             323.63,370.00 330.88,343.00 330.88,343.00
             330.88,343.00 348.72,277.00 348.72,277.00
             348.72,277.00 357.67,250.00 357.67,250.00
             357.67,250.00 371.00,212.00 371.00,212.00
             371.00,212.00 367.27,240.00 367.27,240.00
             367.27,240.00 360.42,286.00 360.42,286.00
             360.42,286.00 350.27,354.00 350.27,354.00
             350.27,354.00 344.00,396.00 344.00,396.00
             344.00,396.00 384.00,408.00 384.00,408.00
             384.00,408.00 403.75,369.00 403.75,369.00
             403.75,369.00 444.69,289.00 444.69,289.00
             444.69,289.00 462.69,256.00 462.69,256.00
             462.69,256.00 475.00,235.00 475.00,235.00
             475.00,235.00 450.72,319.00 450.72,319.00
             450.72,319.00 429.42,392.00 429.42,392.00
             429.42,392.00 420.00,424.00 420.00,424.00
             420.00,424.00 464.00,436.00 464.00,436.00
             464.88,429.47 466.91,417.94 472.21,413.65
             478.96,408.18 492.91,412.89 500.00,416.00
             500.00,416.00 492.00,452.00 492.00,452.00
             492.00,452.00 540.00,464.00 540.00,464.00
             540.00,464.00 557.42,416.00 557.42,416.00
             557.42,416.00 567.00,389.00 567.00,389.00
             571.94,391.33 575.80,395.46 580.00,398.92
             585.32,403.30 592.09,407.98 598.00,411.55
             617.63,423.39 634.57,428.99 656.00,436.00
             654.15,429.66 653.17,425.74 649.45,420.00
             639.18,404.12 619.72,396.55 603.00,389.42
             593.02,385.16 573.90,377.88 569.00,368.00
             569.00,368.00 632.00,382.43 632.00,382.43
             632.00,382.43 667.00,395.00 667.00,395.00
             667.00,395.00 659.58,377.00 659.58,377.00
             658.56,374.60 656.43,370.57 656.92,368.00
             657.48,365.12 660.98,362.04 663.00,360.00
             663.00,360.00 675.87,346.00 675.87,346.00
             682.34,338.44 687.52,331.07 691.69,322.00
             696.19,312.22 699.91,300.51 708.00,293.00
             707.51,303.72 704.07,316.51 701.65,327.00
             695.62,353.16 687.12,378.47 679.03,404.00
             679.03,404.00 674.21,428.00 674.21,428.00
             673.05,431.98 670.83,435.69 667.82,438.54
             665.78,440.47 662.43,442.38 661.48,445.09
             661.48,445.09 662.99,464.00 662.99,464.00
             662.84,469.99 661.29,473.59 656.91,477.82
             654.67,479.97 650.48,482.28 649.48,485.09
             649.48,485.09 650.99,504.00 650.99,504.00
             650.84,509.99 649.29,513.60 644.91,517.82
             642.92,519.73 639.01,522.13 637.77,524.18
             636.29,526.60 637.03,533.86 637.00,537.00
             636.63,568.55 603.83,595.60 575.00,602.11
             563.73,604.66 551.51,604.00 540.00,604.00
             568.87,633.51 578.83,670.08 563.94,709.00
             558.18,724.05 544.20,737.49 544.00,754.00
             543.82,769.13 546.64,784.19 549.60,799.00
             551.05,806.26 553.41,818.51 556.31,825.00
             556.31,825.00 578.73,863.00 578.73,863.00
             584.91,875.36 587.98,892.22 588.00,906.00
             588.00,906.00 584.83,956.00 584.83,956.00
             584.83,956.00 582.00,988.00 582.00,988.00
             582.00,988.00 582.00,1004.00 582.00,1004.00
             582.00,1004.00 584.00,1024.00 584.00,1024.00
             584.00,1024.00 484.00,1024.00 484.00,1024.00
             484.00,1024.00 462.72,872.00 462.72,872.00
             462.72,872.00 456.00,824.00 456.00,824.00
             447.71,830.05 433.42,838.39 423.00,838.90
             414.00,839.34 401.94,834.21 394.00,830.25
             378.09,822.31 359.34,811.06 354.04,793.00
             352.71,788.45 352.95,783.69 353.00,779.00
             353.15,766.31 359.53,756.50 365.80,746.00
             368.69,741.15 374.12,732.72 373.58,727.00
             372.94,720.27 361.09,703.44 357.37,696.00
             349.28,679.81 340.22,650.09 340.00,632.00
             340.00,632.00 340.00,589.00 340.00,589.00
             339.99,586.44 340.35,582.67 338.40,580.73
             336.71,579.05 330.60,578.05 328.00,577.28
             320.93,575.18 314.59,572.53 308.00,569.25
             278.00,554.29 245.92,538.71 226.67,510.00
             210.65,486.10 207.87,461.96 208.00,434.00
             208.11,411.02 221.78,401.81 222.00,384.00
             222.07,377.48 221.29,370.76 225.26,365.09
             231.98,355.50 245.38,357.14 254.00,353.87
             262.07,350.82 266.75,344.05 271.00,337.00
             271.00,337.00 240.00,348.00 240.00,348.00
             234.26,337.64 230.55,329.18 241.02,320.33
             243.30,318.39 245.35,317.30 248.00,316.00
             242.66,303.83 239.29,291.38 251.04,281.67
             254.04,279.19 256.54,277.70 260.00,276.00
             256.51,268.50 252.43,257.04 256.45,249.00
             259.42,243.08 266.22,238.82 272.00,236.00
             265.08,223.50 262.48,211.48 275.00,201.52
             277.88,199.23 280.72,197.60 284.00,196.00 Z
           M 459.00,8.00
           C 459.00,8.00 435.00,14.45 435.00,14.45
             415.72,22.10 404.71,35.91 400.00,56.00
             406.05,55.72 415.87,54.19 421.00,51.01
             428.09,46.61 435.36,35.49 441.17,29.00
             445.75,23.89 456.44,13.42 459.00,8.00 Z
           M 403.00,17.00
           C 380.50,21.07 373.65,38.66 372.00,59.00
             372.00,59.00 385.42,42.00 385.42,42.00
             385.42,42.00 403.00,17.00 403.00,17.00 Z
           M 364.00,35.00
           C 364.00,35.00 361.00,32.00 361.00,32.00
             361.00,32.00 364.00,35.00 364.00,35.00 Z
           M 625.00,36.00
           C 625.00,36.00 654.00,44.69 654.00,44.69
             695.14,59.33 739.46,84.03 774.00,110.65
             806.13,135.42 838.67,168.99 862.29,202.00
             892.99,244.90 915.21,289.42 930.28,340.00
             939.18,369.86 944.92,400.94 947.09,432.00
             947.09,432.00 948.00,442.00 948.00,442.00
             948.00,442.00 949.00,462.00 949.00,462.00
             949.00,462.00 949.00,473.00 949.00,473.00
             949.00,473.00 948.00,489.00 948.00,489.00
             947.97,510.62 943.13,541.70 938.42,563.00
             923.16,632.14 893.85,693.67 849.60,749.00
             838.75,762.57 827.42,776.86 815.00,788.99
             777.61,825.48 728.73,856.76 681.00,877.86
             663.15,885.75 627.90,900.23 609.00,900.96
             605.11,901.11 600.39,900.83 597.22,898.30
             592.02,894.16 590.52,878.57 589.58,872.00
             589.20,869.36 587.68,858.49 589.01,856.73
             590.33,854.99 596.71,853.94 599.00,853.37
             599.00,853.37 624.00,846.33 624.00,846.33
             753.67,803.15 857.58,690.02 889.12,557.00
             903.15,497.83 902.61,432.97 887.87,374.00
             880.28,343.63 868.59,310.54 853.69,283.00
             838.29,254.52 815.95,222.66 793.91,199.00
             793.91,199.00 763.00,168.04 763.00,168.04
             763.00,168.04 749.17,155.00 749.17,155.00
             749.17,155.00 723.27,119.00 723.27,119.00
             715.84,108.92 707.17,99.59 698.00,91.09
             698.00,91.09 646.00,52.42 646.00,52.42
             640.35,48.35 629.14,40.90 625.00,36.00 Z
           M 359.00,38.00
           C 353.86,42.01 344.76,53.39 341.00,59.00
             351.41,55.69 356.58,48.32 359.00,38.00 Z
           M 444.00,916.00
           C 273.71,916.00 111.81,811.90 40.69,657.00
             33.50,641.33 26.62,625.45 21.34,609.00
             10.56,575.37 4.51,544.09 1.04,509.00
             1.04,509.00 1.04,500.00 1.04,500.00
             1.04,500.00 0.00,488.00 0.00,488.00
             0.00,488.00 0.00,458.00 0.00,458.00
             0.00,458.00 1.00,441.00 1.00,441.00
             1.19,425.24 5.82,393.91 9.00,378.00
             17.61,334.97 31.38,292.70 52.31,254.00
             83.34,196.61 126.79,146.29 179.00,107.13
             215.83,79.50 270.46,48.57 316.00,40.00
             316.00,40.00 291.40,82.00 291.40,82.00
             288.29,87.18 280.50,101.17 276.82,104.68
             276.82,104.68 250.00,122.42 250.00,122.42
             233.26,132.90 215.23,143.94 200.00,156.42
             159.15,189.89 120.61,232.81 96.26,280.00
             76.49,318.31 63.23,356.57 55.58,399.00
             53.43,410.90 50.14,432.30 50.00,444.00
             50.00,444.00 49.00,461.00 49.00,461.00
             49.00,461.00 49.00,475.00 49.00,475.00
             49.00,475.00 50.00,493.00 50.00,493.00
             50.00,493.00 50.91,503.00 50.91,503.00
             53.07,532.49 59.32,561.95 68.67,590.00
             100.54,685.63 165.45,764.37 253.00,814.57
             311.52,848.13 373.30,862.60 440.00,868.00
             440.00,868.00 443.09,906.00 443.09,906.00
             443.09,906.00 444.00,916.00 444.00,916.00 Z
           M 344.00,92.00
           C 328.10,94.24 325.78,97.55 320.00,112.00
             325.70,111.74 334.56,111.11 338.61,106.78
             342.12,103.02 343.08,96.89 344.00,92.00 Z
           M 332.00,132.00
           C 328.30,132.70 322.22,133.74 319.00,135.44
             310.94,139.69 309.63,147.87 308.00,156.00
             313.87,154.67 322.45,152.50 326.44,147.81
             329.92,143.74 331.03,137.15 332.00,132.00 Z
           M 548.00,152.00
           C 548.00,152.00 576.00,164.00 576.00,164.00
             576.00,164.00 572.00,180.00 572.00,180.00
             572.00,180.00 544.00,172.00 544.00,172.00
             544.00,172.00 548.00,152.00 548.00,152.00 Z
           M 320.00,172.00
           C 314.79,172.70 307.17,173.79 303.21,177.39
             299.42,180.84 297.59,187.23 296.00,192.00
             300.52,191.79 309.25,191.02 312.81,188.30
             317.30,184.88 318.93,177.30 320.00,172.00 Z
           M 536.00,192.00
           C 536.00,192.00 555.00,199.85 555.00,199.85
             555.00,199.85 562.98,204.41 562.98,204.41
             562.98,204.41 564.00,212.00 564.00,212.00
             564.00,212.00 532.00,208.00 532.00,208.00
             532.00,208.00 536.00,192.00 536.00,192.00 Z
           M 308.00,212.00
           C 302.79,212.70 295.17,213.79 291.21,217.39
             287.42,220.84 285.59,227.23 284.00,232.00
             288.52,231.79 297.25,231.02 300.81,228.30
             305.30,224.88 306.93,217.30 308.00,212.00 Z
           M 588.00,320.00
           C 590.08,304.56 595.32,289.91 599.57,275.00
             603.74,260.37 608.08,241.58 614.31,228.00
             618.39,219.08 623.04,212.27 634.00,213.19
             642.89,213.93 649.80,220.10 654.84,227.00
             667.28,244.03 666.08,267.40 657.69,286.00
             655.58,290.69 652.66,295.97 649.48,300.00
             632.78,321.23 612.16,320.00 588.00,320.00 Z
           M 476.00,224.00
           C 476.00,224.00 480.00,224.00 480.00,224.00
             480.00,224.00 476.00,228.00 476.00,228.00
             476.00,228.00 476.00,224.00 476.00,224.00 Z
           M 524.00,228.00
           C 536.23,230.46 550.97,233.09 549.82,249.00
             549.82,249.00 548.00,260.00 548.00,260.00
             541.39,258.49 529.86,254.64 525.99,248.91
             521.88,242.81 522.78,234.82 524.00,228.00 Z
           M 296.00,252.00
           C 279.60,255.09 275.09,259.60 272.00,276.00
             289.51,273.53 292.64,268.71 296.00,252.00 Z
           M 512.16,272.00
           C 512.16,272.00 540.00,284.00 540.00,284.00
             540.00,284.00 536.00,300.00 536.00,300.00
             528.70,298.53 515.90,296.15 512.16,288.98
             510.02,284.40 511.13,276.88 512.16,272.00 Z
           M 284.00,292.00
           C 274.77,293.74 267.35,295.67 262.92,305.00
             261.41,308.18 260.66,312.52 260.00,316.00
             277.51,313.53 280.64,308.71 284.00,292.00 Z
           M 496.00,320.00
           C 502.32,320.85 512.00,322.22 516.79,326.53
             521.35,330.63 523.17,338.14 524.00,344.00
             524.00,344.00 505.00,338.71 505.00,338.71
             505.00,338.71 496.99,335.30 496.99,335.30
             496.99,335.30 496.00,320.00 496.00,320.00 Z
           M 272.00,336.00
           C 272.00,336.00 271.00,336.00 271.00,336.00
             271.00,336.00 272.00,337.00 272.00,337.00
             272.00,337.00 272.00,336.00 272.00,336.00 Z
           M 484.00,364.00
           C 490.11,364.82 501.42,366.54 505.58,371.21
             510.36,376.57 509.16,385.52 508.00,392.00
             508.00,392.00 480.00,380.00 480.00,380.00
             480.00,380.00 484.00,364.00 484.00,364.00 Z
           M 255.00,377.00
           C 249.83,378.47 237.17,384.68 233.00,388.00
             243.03,387.54 249.84,386.59 255.00,377.00 Z
           M 668.00,395.00
           C 668.00,395.00 667.00,395.00 667.00,395.00
             667.00,395.00 668.00,396.00 668.00,396.00
             668.00,396.00 668.00,395.00 668.00,395.00 Z
           M 640.23,480.00
           C 641.31,473.47 643.32,468.59 640.23,462.00
             637.12,454.28 627.07,447.50 620.00,443.20
             606.38,434.93 575.06,419.44 559.78,416.00
             558.75,422.23 556.61,427.79 559.78,434.00
             563.03,441.26 575.91,448.91 583.00,452.77
             601.47,462.83 620.46,472.18 640.23,480.00 Z
           M 240.00,429.00
           C 228.38,443.69 232.89,477.03 244.00,491.00
             244.00,491.00 243.09,480.00 243.09,480.00
             243.09,480.00 241.91,455.00 241.91,455.00
             241.91,455.00 240.00,429.00 240.00,429.00 Z
           M 269.00,432.00
           C 266.85,432.00 262.42,431.68 260.72,432.99
             258.97,434.36 258.13,438.85 257.66,441.00
             256.43,446.67 254.88,459.29 255.01,465.00
             255.52,487.28 263.97,508.48 284.00,520.00
             280.45,504.46 269.02,480.70 269.00,466.00
             269.00,466.00 269.00,432.00 269.00,432.00 Z
           M 323.00,527.00
           C 323.00,527.00 309.72,491.00 309.72,491.00
             304.35,473.35 306.28,469.16 304.00,453.00
             303.25,447.70 302.20,434.07 294.22,436.30
             290.86,437.24 289.94,442.05 289.15,445.00
             286.11,456.40 285.98,462.48 286.00,474.00
             286.03,496.34 298.73,523.19 323.00,527.00 Z
           M 631.00,511.00
           C 628.89,499.78 619.94,490.86 611.00,484.43
             593.92,472.14 568.87,462.82 548.00,460.00
             549.73,464.95 551.25,468.79 554.68,472.91
             564.95,485.27 584.03,486.95 598.00,493.49
             598.00,493.49 631.00,511.00 631.00,511.00 Z
           M 632.00,511.00
           C 632.00,511.00 631.00,511.00 631.00,511.00
             631.00,511.00 632.00,512.00 632.00,512.00
             632.00,512.00 632.00,511.00 632.00,511.00 Z
           M 324.00,527.00
           C 324.00,527.00 323.00,527.00 323.00,527.00
             323.00,527.00 324.00,528.00 324.00,528.00
             324.00,528.00 324.00,527.00 324.00,527.00 Z
           M 428.00,596.00
           C 428.00,596.00 384.00,590.84 384.00,590.84
             384.00,590.84 360.00,588.00 360.00,588.00
             360.00,616.65 358.38,644.39 367.67,672.00
             371.93,684.65 380.03,699.14 391.00,707.00
             391.00,684.53 388.52,661.07 397.86,640.00
             405.00,623.89 418.70,610.72 428.00,596.00 Z
           M 568.00,885.00
           C 562.37,894.49 563.97,907.49 572.00,915.00
             572.00,915.00 568.00,885.00 568.00,885.00 Z" />
</svg>
