<?xml version="1.0" encoding="UTF-8" standalone="no"?>
<!DOCTYPE svg PUBLIC "-//W3C//DTD SVG 20010904//EN"
              "http://www.w3.org/TR/2001/REC-SVG-20010904/DTD/svg10.dtd">

<svg xmlns="http://www.w3.org/2000/svg"
     width="18.6in" height="11.3778in"
     viewBox="0 0 1674 1024">
  <path id="Selection"
        fill="none" stroke="black" stroke-width="1"
        d="M 16.00,64.00
           C 16.00,64.00 96.00,64.00 96.00,64.00
             96.00,64.00 120.00,66.73 120.00,66.73
             120.00,66.73 129.30,68.95 129.30,68.95
             129.30,68.95 136.81,87.00 136.81,87.00
             136.81,87.00 141.80,110.00 141.80,110.00
             141.80,110.00 149.42,151.00 149.42,151.00
             149.42,151.00 186.61,350.00 186.61,350.00
             186.61,350.00 198.61,412.00 198.61,412.00
             198.61,412.00 204.00,440.00 204.00,440.00
             204.00,440.00 212.00,440.00 212.00,440.00
             212.00,440.00 221.92,379.00 221.92,379.00
             221.92,379.00 242.39,262.00 242.39,262.00
             242.39,262.00 262.60,152.00 262.60,152.00
             262.60,152.00 275.42,95.00 275.42,95.00
             277.58,87.62 280.95,76.28 287.04,71.42
             293.79,66.03 314.23,64.01 323.00,64.00
             323.00,64.00 392.00,64.00 392.00,64.00
             392.00,64.00 392.00,612.00 392.00,612.00
             392.00,612.00 308.00,612.00 308.00,612.00
             308.00,612.00 308.00,405.00 308.00,405.00
             308.00,405.00 306.09,377.00 306.09,377.00
             306.09,377.00 303.17,333.00 303.17,333.00
             302.38,325.13 302.05,309.59 299.00,303.00
             299.00,303.00 295.25,326.00 295.25,326.00
             295.25,326.00 285.42,379.00 285.42,379.00
             285.42,379.00 254.60,542.00 254.60,542.00
             254.60,542.00 245.40,587.00 245.40,587.00
             244.35,592.22 243.31,602.03 239.72,605.78
             235.26,610.45 224.26,611.93 218.00,612.00
             207.71,612.11 188.99,609.61 181.18,602.61
             176.40,598.33 172.98,588.99 170.60,583.00
             170.60,583.00 155.13,534.00 155.13,534.00
             155.13,534.00 114.37,368.00 114.37,368.00
             114.37,368.00 102.37,319.00 102.37,319.00
             102.37,319.00 96.00,294.00 96.00,294.00
             96.00,294.00 96.00,612.00 96.00,612.00
             96.00,612.00 16.00,612.00 16.00,612.00
             16.00,612.00 16.00,64.00 16.00,64.00 Z
           M 586.00,64.21
           C 586.00,64.21 594.00,64.21 594.00,64.21
             646.40,63.92 691.70,88.69 711.19,139.00
             727.34,180.69 724.00,239.31 724.00,284.00
             724.00,284.00 724.00,349.00 724.00,349.00
             724.00,349.00 724.00,398.00 724.00,398.00
             724.00,398.00 724.00,464.00 724.00,464.00
             724.00,464.00 723.09,476.00 723.09,476.00
             720.00,520.14 706.86,564.70 668.00,590.48
             659.15,596.35 648.18,601.25 638.00,604.28
             625.62,607.97 606.88,610.94 594.00,611.00
             594.00,611.00 589.00,611.00 589.00,611.00
             589.00,611.00 580.00,610.17 580.00,610.17
             550.73,607.24 526.67,598.78 505.09,577.83
             481.13,554.57 468.05,516.01 468.00,483.00
             468.00,483.00 468.00,268.00 468.00,268.00
             468.00,268.00 468.00,214.00 468.00,214.00
             468.00,214.00 468.00,189.00 468.00,189.00
             468.00,189.00 468.92,177.00 468.92,177.00
             471.55,144.07 482.88,115.03 509.00,93.62
             517.32,86.80 528.10,80.66 538.00,76.43
             548.53,71.93 563.69,67.05 575.00,65.43
             575.00,65.43 586.00,64.21 586.00,64.21 Z
           M 1048.00,296.00
           C 1048.00,296.00 1048.00,447.00 1048.00,447.00
             1048.00,489.60 1048.86,529.22 1019.56,564.00
             969.03,623.99 872.54,628.06 820.29,568.00
             798.04,542.42 791.21,511.89 788.91,479.00
             788.91,479.00 788.00,467.00 788.00,467.00
             788.00,467.00 788.00,248.00 788.00,248.00
             788.00,208.15 785.47,159.97 807.69,125.00
             848.15,61.35 933.54,44.83 995.00,88.04
             1005.47,95.40 1017.19,107.52 1024.56,118.00
             1052.58,157.79 1048.00,205.99 1048.00,252.00
             1048.00,252.00 964.00,252.00 964.00,252.00
             964.00,225.13 966.64,190.47 949.32,168.00
             945.63,163.22 941.01,158.89 936.00,155.52
             932.15,152.93 928.42,150.96 924.00,149.52
             908.51,144.47 896.66,151.66 887.48,164.00
             876.01,179.41 868.23,207.81 868.00,227.00
             868.00,227.00 868.00,306.00 868.00,306.00
             868.00,306.00 868.00,449.00 868.00,449.00
             868.03,467.70 872.77,492.91 884.24,508.00
             891.76,517.90 906.02,527.41 919.00,526.62
             932.13,525.83 944.01,515.53 950.90,505.00
             960.45,490.40 961.93,471.92 963.09,455.00
             963.09,455.00 964.00,443.00 964.00,443.00
             964.00,443.00 964.00,376.00 964.00,376.00
             964.00,376.00 916.00,376.00 916.00,376.00
             916.00,376.00 916.00,296.00 916.00,296.00
             916.00,296.00 1048.00,296.00 1048.00,296.00 Z
           M 1112.00,64.00
           C 1112.00,64.00 1344.00,64.00 1344.00,64.00
             1344.00,64.00 1344.00,144.00 1344.00,144.00
             1344.00,144.00 1200.00,144.00 1200.00,144.00
             1200.00,144.00 1200.00,300.00 1200.00,300.00
             1200.00,300.00 1308.00,300.00 1308.00,300.00
             1308.00,300.00 1308.00,380.00 1308.00,380.00
             1308.00,380.00 1200.00,380.00 1200.00,380.00
             1200.00,380.00 1200.00,532.00 1200.00,532.00
             1200.00,532.00 1344.00,532.00 1344.00,532.00
             1344.00,532.00 1344.00,612.00 1344.00,612.00
             1344.00,612.00 1166.00,612.00 1166.00,612.00
             1166.00,612.00 1130.00,611.41 1130.00,611.41
             1124.61,610.56 1119.19,609.53 1115.65,604.90
             1112.25,600.44 1112.01,593.39 1112.00,588.00
             1112.00,588.00 1112.00,64.00 1112.00,64.00 Z
           M 1408.00,460.00
           C 1408.00,460.00 1456.00,456.00 1456.00,456.00
             1462.25,456.08 1470.70,457.56 1476.00,460.97
             1486.91,467.99 1491.12,485.64 1496.81,497.00
             1507.21,517.80 1527.16,537.20 1552.00,528.64
             1556.17,527.20 1559.45,525.31 1563.00,522.71
             1568.87,518.42 1573.72,513.20 1577.53,507.00
             1580.27,502.57 1583.85,495.01 1585.25,490.00
             1586.31,486.23 1588.06,475.75 1587.90,472.00
             1586.51,440.60 1557.02,409.02 1536.00,388.00
             1536.00,388.00 1483.00,339.91 1483.00,339.91
             1457.31,315.98 1432.86,284.03 1422.72,250.00
             1415.57,226.03 1415.96,208.41 1416.00,184.00
             1416.00,184.00 1416.91,172.00 1416.91,172.00
             1419.25,140.03 1429.09,114.65 1454.00,93.30
             1496.62,56.77 1574.26,54.04 1620.00,86.21
             1634.29,96.26 1645.80,110.50 1653.74,126.00
             1662.98,144.02 1668.00,167.79 1668.00,188.00
             1668.00,188.00 1634.00,193.42 1634.00,193.42
             1634.00,193.42 1592.00,200.00 1592.00,200.00
             1584.92,178.80 1572.10,150.83 1548.00,145.24
             1535.83,142.42 1523.21,149.98 1515.62,159.01
             1500.11,177.47 1496.89,200.47 1504.86,223.00
             1520.40,266.88 1561.73,295.17 1594.00,326.04
             1624.37,355.09 1652.08,387.29 1665.26,428.00
             1670.53,444.29 1672.94,460.98 1673.91,478.00
             1674.13,481.86 1673.50,483.47 1673.00,487.00
             1673.00,487.00 1673.00,496.00 1673.00,496.00
             1673.00,496.00 1669.65,515.00 1669.65,515.00
             1664.71,536.80 1656.98,555.17 1641.83,572.00
             1600.43,617.98 1523.69,623.30 1472.00,592.55
             1425.29,564.76 1408.00,511.76 1408.00,460.00 Z
           M 586.00,146.32
           C 555.29,153.20 544.34,177.90 544.00,207.00
             544.00,207.00 544.00,298.00 544.00,298.00
             544.00,298.00 544.00,463.00 544.00,463.00
             544.04,486.59 549.91,516.49 575.00,525.45
             582.39,528.10 587.35,528.09 595.00,528.00
             621.31,527.69 635.96,510.51 636.00,485.00
             636.00,485.00 636.00,299.00 636.00,299.00
             636.00,299.00 636.00,196.00 636.00,196.00
             635.85,183.18 632.66,166.82 623.54,157.30
             614.48,147.85 598.58,144.95 586.00,146.32 Z
           M 180.00,664.00
           C 180.00,664.00 216.00,661.00 216.00,661.00
             234.12,660.79 241.01,661.18 259.00,664.42
             267.95,666.04 276.78,668.26 285.00,672.26
             305.80,682.37 313.73,700.00 315.96,722.00
             315.96,722.00 315.96,730.00 315.96,730.00
             315.96,730.00 317.00,740.00 317.00,740.00
             317.00,740.00 316.00,760.00 316.00,760.00
             316.00,760.00 316.00,777.00 316.00,777.00
             315.98,787.07 314.30,798.55 310.77,808.00
             307.19,817.59 301.16,827.47 301.18,838.00
             301.18,838.00 307.58,873.00 307.58,873.00
             307.58,873.00 317.20,924.00 317.20,924.00
             317.20,924.00 324.00,960.00 324.00,960.00
             314.65,959.80 292.23,957.03 285.04,951.44
             278.00,945.98 273.17,932.44 270.59,924.00
             265.05,905.93 257.51,870.58 256.00,852.00
             256.00,852.00 224.00,852.00 224.00,852.00
             224.00,852.00 224.00,960.00 224.00,960.00
             224.00,960.00 180.00,960.00 180.00,960.00
             180.00,960.00 180.00,664.00 180.00,664.00 Z
           M 540.00,664.00
           C 578.74,664.00 626.39,654.26 657.99,683.17
             673.17,697.07 677.28,715.52 679.17,735.00
             679.17,735.00 680.00,744.00 680.00,744.00
             680.00,744.00 680.00,775.00 680.00,775.00
             680.00,775.00 679.00,792.00 679.00,792.00
             679.00,792.00 679.00,828.00 679.00,828.00
             679.00,828.00 678.00,845.00 678.00,845.00
             678.00,845.00 678.00,876.00 678.00,876.00
             678.00,876.00 676.17,895.00 676.17,895.00
             674.41,913.36 673.46,923.18 658.96,936.83
             625.98,967.88 580.99,960.00 540.00,960.00
             540.00,960.00 540.00,664.00 540.00,664.00 Z
           M 0.00,664.00
           C 27.20,664.00 54.96,660.45 82.00,664.92
             95.99,667.23 110.69,671.57 120.83,682.09
             130.27,691.88 136.86,706.92 140.13,720.00
             149.40,757.11 144.06,812.27 112.00,837.48
             93.25,852.23 70.56,852.00 48.00,852.00
             48.00,852.00 48.00,960.00 48.00,960.00
             48.00,960.00 0.00,960.00 0.00,960.00
             0.00,960.00 0.00,664.00 0.00,664.00 Z
           M 716.00,664.00
           C 716.00,664.00 760.00,664.00 760.00,664.00
             760.00,664.00 760.00,854.00 760.00,854.00
             760.14,866.06 763.19,885.26 768.61,896.00
             771.63,901.99 776.80,908.01 784.00,908.50
             787.14,908.72 791.27,907.30 794.00,905.81
             808.38,897.97 811.82,877.99 812.00,863.00
             812.00,863.00 812.00,664.00 812.00,664.00
             812.00,664.00 860.00,664.00 860.00,664.00
             860.00,664.00 860.00,874.00 860.00,874.00
             860.00,874.00 859.08,884.00 859.08,884.00
             857.26,906.85 851.35,929.39 833.00,944.68
             798.11,973.74 737.13,959.32 723.03,915.00
             714.67,888.72 716.00,846.16 716.00,818.00
             716.00,818.00 716.00,664.00 716.00,664.00 Z
           M 1040.00,852.00
           C 1040.00,852.00 1040.00,864.00 1040.00,864.00
             1040.00,864.00 1039.09,874.00 1039.09,874.00
             1037.11,902.86 1033.93,931.86 1007.00,948.77
             1001.59,952.17 997.10,954.25 991.00,956.12
             979.30,959.70 974.87,959.06 963.00,959.00
             936.57,958.87 911.75,941.69 902.42,917.00
             895.19,897.83 896.00,878.07 896.00,858.00
             896.00,858.00 896.00,844.00 896.00,844.00
             896.00,844.00 895.00,829.00 895.00,829.00
             895.00,829.00 895.00,790.00 895.00,790.00
             895.00,790.00 896.00,777.00 896.00,777.00
             896.41,741.71 894.51,695.24 929.00,673.82
             933.55,670.99 937.87,668.97 943.00,667.44
             949.27,665.56 958.47,664.08 965.00,664.00
             971.82,663.93 980.42,664.92 987.00,666.74
             1024.00,677.00 1039.06,712.33 1039.00,748.00
             1038.99,752.21 1039.13,756.20 1036.91,759.98
             1033.54,765.73 1028.96,766.41 1023.00,767.27
             1014.04,768.56 1001.39,768.00 992.00,768.00
             992.00,749.86 991.13,731.08 975.99,718.33
             966.35,710.21 958.00,712.82 950.33,722.00
             943.23,730.49 940.13,743.11 940.00,754.00
             940.00,754.00 940.00,835.00 940.00,835.00
             940.00,852.70 938.53,871.08 944.69,888.00
             949.75,901.86 962.37,915.61 977.00,903.66
             979.64,901.50 982.01,898.84 983.90,896.00
             992.86,882.54 992.00,867.41 992.00,852.00
             992.00,852.00 1040.00,852.00 1040.00,852.00 Z
           M 1068.00,664.00
           C 1068.00,664.00 1208.00,664.00 1208.00,664.00
             1208.00,664.00 1208.00,704.00 1208.00,704.00
             1193.64,704.00 1172.43,700.47 1164.09,715.00
             1162.63,717.54 1161.80,721.12 1161.26,724.00
             1160.22,729.53 1160.01,731.39 1160.00,737.00
             1160.00,737.00 1160.00,960.00 1160.00,960.00
             1160.00,960.00 1112.00,960.00 1112.00,960.00
             1112.00,960.00 1112.00,704.00 1112.00,704.00
             1112.00,704.00 1068.00,704.00 1068.00,704.00
             1068.00,704.00 1068.00,664.00 1068.00,664.00 Z
           M 1244.00,664.00
           C 1244.00,664.00 1288.00,664.00 1288.00,664.00
             1288.00,664.00 1288.00,960.00 1288.00,960.00
             1288.00,960.00 1244.00,960.00 1244.00,960.00
             1244.00,960.00 1244.00,664.00 1244.00,664.00 Z
           M 1504.00,664.00
           C 1504.00,664.00 1541.00,666.91 1541.00,666.91
             1541.00,666.91 1555.30,668.98 1555.30,668.98
             1555.30,668.98 1560.67,682.00 1560.67,682.00
             1560.67,682.00 1571.34,715.00 1571.34,715.00
             1571.34,715.00 1596.66,792.00 1596.66,792.00
             1596.66,792.00 1612.00,838.00 1612.00,838.00
             1612.00,838.00 1612.00,664.00 1612.00,664.00
             1612.00,664.00 1660.00,664.00 1660.00,664.00
             1660.00,664.00 1660.00,960.00 1660.00,960.00
             1660.00,960.00 1650.00,959.09 1650.00,959.09
             1650.00,959.09 1626.00,957.17 1626.00,957.17
             1626.00,957.17 1611.41,955.02 1611.41,955.02
             1611.41,955.02 1605.05,942.00 1605.05,942.00
             1605.05,942.00 1593.32,912.00 1593.32,912.00
             1593.32,912.00 1561.69,821.00 1561.69,821.00
             1561.69,821.00 1552.00,793.00 1552.00,793.00
             1552.00,793.00 1552.00,960.00 1552.00,960.00
             1552.00,960.00 1504.00,960.00 1504.00,960.00
             1504.00,960.00 1504.00,664.00 1504.00,664.00 Z
           M 417.00,665.22
           C 417.00,665.22 438.00,665.22 438.00,665.22
             465.30,665.32 487.84,683.31 495.97,709.00
             501.61,726.80 500.00,754.79 500.00,774.00
             500.00,774.00 500.00,885.00 500.00,885.00
             499.82,899.73 495.70,919.67 487.48,932.00
             476.05,949.13 455.93,957.49 436.00,959.08
             432.71,959.35 430.38,960.06 427.00,959.82
             396.31,957.63 372.25,940.31 363.75,910.00
             358.99,893.04 360.00,875.41 360.00,858.00
             360.00,858.00 360.00,783.00 360.00,783.00
             360.00,760.66 358.34,728.84 365.36,708.00
             372.90,685.59 393.91,669.28 417.00,665.22 Z
           M 1384.00,665.22
           C 1384.00,665.22 1403.00,665.22 1403.00,665.22
             1423.80,665.03 1445.04,674.86 1456.07,693.00
             1465.27,708.10 1464.59,726.03 1463.32,743.00
             1463.32,743.00 1464.00,756.00 1464.00,756.00
             1464.00,756.00 1466.83,799.00 1466.83,799.00
             1466.83,799.00 1468.09,823.00 1468.09,823.00
             1468.09,823.00 1469.00,835.00 1469.00,835.00
             1469.00,835.00 1469.00,874.00 1469.00,874.00
             1468.99,883.42 1466.10,904.10 1463.25,913.00
             1455.12,938.44 1435.10,954.44 1409.00,958.56
             1399.92,960.00 1390.00,959.70 1381.00,957.79
             1373.14,956.12 1365.70,953.09 1359.00,948.64
             1353.37,944.91 1348.72,941.16 1344.30,936.00
             1331.43,920.99 1325.03,896.54 1325.00,877.00
             1325.00,877.00 1325.00,857.00 1325.00,857.00
             1325.00,857.00 1325.91,846.00 1325.91,846.00
             1325.91,846.00 1327.09,822.00 1327.09,822.00
             1327.09,822.00 1328.00,810.00 1328.00,810.00
             1328.00,810.00 1328.00,790.00 1328.00,790.00
             1328.00,790.00 1327.00,774.00 1327.00,774.00
             1326.96,749.73 1325.19,728.19 1334.06,705.00
             1342.07,684.07 1362.36,669.49 1384.00,665.22 Z
           M 48.00,808.00
           C 59.66,808.00 76.37,809.27 85.99,801.61
             92.39,796.51 95.63,788.72 97.62,781.00
             102.36,762.60 101.84,727.98 86.96,714.18
             76.67,704.65 61.29,704.00 48.00,704.00
             48.00,704.00 48.00,808.00 48.00,808.00 Z
           M 224.00,808.00
           C 236.15,808.00 253.26,809.41 262.90,800.67
             268.18,795.88 270.93,787.76 272.63,781.00
             276.36,766.09 276.62,751.12 274.08,736.00
             272.86,728.76 270.18,719.53 264.82,714.30
             255.09,704.81 236.92,704.00 224.00,704.00
             224.00,704.00 224.00,808.00 224.00,808.00 Z
           M 584.00,916.00
           C 598.97,916.00 616.78,917.53 627.67,904.96
             638.13,892.89 636.00,872.07 636.00,857.00
             636.00,857.00 636.00,747.00 636.00,747.00
             635.97,727.80 630.67,713.78 611.00,707.36
             603.53,704.92 593.00,703.90 587.70,711.10
             584.88,714.93 584.06,722.32 584.00,727.00
             584.00,727.00 584.00,775.00 584.00,775.00
             584.00,775.00 584.00,831.00 584.00,831.00
             584.00,831.00 584.00,916.00 584.00,916.00 Z
           M 1392.00,710.40
           C 1373.14,715.94 1368.03,733.43 1368.00,751.00
             1368.00,751.00 1368.00,862.00 1368.00,862.00
             1368.02,873.67 1370.39,892.97 1376.35,903.00
             1378.57,906.73 1382.04,910.54 1386.00,912.43
             1394.57,916.52 1407.60,913.46 1413.45,905.96
             1418.73,899.19 1419.99,887.38 1420.00,879.00
             1420.00,879.00 1420.00,742.00 1420.00,742.00
             1419.84,728.22 1417.01,715.39 1402.00,711.48
             1398.26,710.50 1395.86,710.05 1392.00,710.40 Z
           M 424.00,711.36
           C 404.70,717.44 401.03,739.52 401.00,757.00
             401.00,757.00 401.00,860.00 401.00,860.00
             401.11,868.79 405.28,895.84 409.61,903.00
             416.63,914.59 434.14,918.66 443.79,907.96
             450.26,900.79 451.99,888.34 452.00,879.00
             452.00,879.00 452.00,740.00 452.00,740.00
             451.86,727.98 448.92,713.77 435.00,711.36
             431.54,710.72 427.46,710.92 424.00,711.36 Z" />
</svg>
