<?xml version="1.0" encoding="UTF-8" standalone="no"?>
<!DOCTYPE svg PUBLIC "-//W3C//DTD SVG 20010904//EN"
              "http://www.w3.org/TR/2001/REC-SVG-20010904/DTD/svg10.dtd">

<svg xmlns="http://www.w3.org/2000/svg"
     width="57.6889in" height="8.88889in"
     viewBox="0 0 5192 800">
  <path id="Selection #1"
        fill="none" stroke="black" stroke-width="1"
        d="M 2563.00,790.00
           C 2563.13,787.32 2563.15,782.93 2565.53,781.17
             2567.01,780.08 2579.13,779.15 2582.00,778.73
             2592.97,777.11 2604.83,774.62 2615.00,770.14
             2648.62,755.32 2672.92,718.10 2692.31,688.00
             2692.31,688.00 2775.42,554.00 2775.42,554.00
             2775.42,554.00 2950.05,271.00 2950.05,271.00
             2950.05,271.00 3011.19,172.00 3011.19,172.00
             3011.19,172.00 3024.19,151.00 3024.19,151.00
             3025.60,148.69 3028.42,143.35 3030.53,141.99
             3032.64,140.63 3037.45,141.00 3040.00,141.00
             3040.00,141.00 3042.00,172.00 3042.00,172.00
             3042.00,172.00 3042.00,181.00 3042.00,181.00
             3042.00,181.00 3044.91,219.00 3044.91,219.00
             3044.91,219.00 3048.09,275.00 3048.09,275.00
             3048.09,275.00 3055.91,391.00 3055.91,391.00
             3055.91,391.00 3057.09,416.00 3057.09,416.00
             3057.09,416.00 3066.00,548.00 3066.00,548.00
             3066.00,548.00 3066.00,557.00 3066.00,557.00
             3066.00,557.00 3068.91,595.00 3068.91,595.00
             3068.91,595.00 3070.88,624.00 3070.88,624.00
             3070.88,624.00 3070.88,634.00 3070.88,634.00
             3070.88,634.00 3072.00,642.00 3072.00,642.00
             3072.00,642.00 3072.00,651.00 3072.00,651.00
             3073.65,673.89 3074.89,697.44 3079.40,720.00
             3082.89,737.44 3088.43,755.02 3103.00,766.48
             3117.60,777.97 3127.71,776.99 3144.00,781.00
             3144.00,781.00 3140.49,788.98 3140.49,788.98
             3140.49,788.98 3126.00,790.00 3126.00,790.00
             3126.00,790.00 3089.00,790.00 3089.00,790.00
             3089.00,790.00 2916.00,790.00 2916.00,790.00
             2916.06,787.47 2915.92,783.79 2917.85,781.85
             2919.97,779.74 2924.23,780.12 2927.00,779.91
             2927.00,779.91 2945.00,777.59 2945.00,777.59
             2967.54,773.80 2989.33,766.83 2999.13,744.00
             3008.37,722.47 3003.27,689.21 3003.00,666.00
             3003.00,666.00 3002.00,656.00 3002.00,656.00
             3002.00,656.00 3002.00,646.00 3002.00,646.00
             3002.00,646.00 3001.00,631.00 3001.00,631.00
             3001.00,631.00 3000.00,614.00 3000.00,614.00
             3000.00,614.00 2999.00,600.00 2999.00,600.00
             2999.00,600.00 2997.00,559.00 2997.00,559.00
             2997.00,559.00 2793.00,559.00 2793.00,559.00
             2782.11,559.02 2782.55,562.61 2776.19,573.00
             2776.19,573.00 2759.58,600.00 2759.58,600.00
             2759.58,600.00 2702.70,694.00 2702.70,694.00
             2695.49,707.12 2683.36,729.05 2683.01,744.00
             2682.27,776.19 2726.00,776.99 2749.00,779.72
             2755.17,780.45 2757.22,779.35 2764.00,781.00
             2764.00,781.00 2762.00,790.00 2762.00,790.00
             2762.00,790.00 2563.00,790.00 2563.00,790.00 Z
           M 3621.00,544.00
           C 3617.28,560.29 3601.11,596.27 3593.25,612.00
             3563.05,672.39 3514.28,739.02 3454.00,771.69
             3440.28,779.13 3425.97,785.77 3411.00,790.28
             3359.46,805.80 3297.74,801.50 3253.00,769.57
             3237.95,758.83 3225.49,746.80 3214.37,732.00
             3187.49,696.20 3174.00,649.23 3170.91,605.00
             3170.91,605.00 3170.00,595.00 3170.00,595.00
             3170.00,595.00 3170.00,559.00 3170.00,559.00
             3170.02,543.24 3174.67,510.98 3177.80,495.00
             3199.45,384.63 3263.40,281.63 3352.00,212.58
             3403.91,172.11 3467.85,140.22 3535.00,141.00
             3535.00,141.00 3544.00,141.83 3544.00,141.83
             3577.70,145.20 3602.78,155.53 3627.00,180.00
             3627.00,180.00 3656.17,215.00 3656.17,215.00
             3661.07,220.41 3667.20,226.53 3675.00,226.74
             3682.79,226.95 3689.31,219.77 3693.51,214.00
             3702.58,201.54 3710.68,177.95 3715.67,163.00
             3716.96,159.11 3720.94,143.82 3723.51,142.02
             3725.39,140.70 3729.69,141.00 3732.00,141.00
             3732.00,141.00 3689.58,295.00 3689.58,295.00
             3689.58,295.00 3668.58,371.00 3668.58,371.00
             3668.58,371.00 3659.00,406.00 3659.00,406.00
             3659.00,406.00 3650.00,406.00 3650.00,406.00
             3650.00,406.00 3654.58,380.00 3654.58,380.00
             3654.58,380.00 3658.00,351.00 3658.00,351.00
             3658.00,351.00 3658.00,342.00 3658.00,342.00
             3658.00,342.00 3659.00,332.00 3659.00,332.00
             3659.00,332.00 3658.00,303.00 3658.00,303.00
             3658.00,303.00 3655.42,280.00 3655.42,280.00
             3650.51,246.90 3640.02,214.64 3617.71,189.00
             3611.99,182.42 3604.22,175.66 3597.00,170.75
             3576.83,157.02 3552.05,151.96 3528.00,152.00
             3490.09,152.06 3452.64,169.28 3423.00,191.88
             3380.60,224.22 3346.21,272.54 3320.70,319.00
             3299.35,357.88 3282.35,398.95 3268.33,441.00
             3255.63,479.11 3244.47,519.20 3238.73,559.00
             3238.73,559.00 3234.00,605.00 3234.00,605.00
             3234.00,605.00 3234.00,642.00 3234.00,642.00
             3234.11,651.49 3235.99,665.50 3237.59,675.00
             3244.97,718.97 3264.31,758.85 3308.00,776.55
             3327.89,784.60 3348.80,786.24 3370.00,786.00
             3396.67,785.68 3427.06,774.97 3450.00,761.85
             3498.70,734.00 3535.99,689.06 3565.32,642.00
             3579.99,618.46 3591.77,593.43 3602.72,568.00
             3602.72,568.00 3608.95,552.00 3608.95,552.00
             3609.74,549.89 3610.77,546.34 3612.65,544.99
             3614.48,543.68 3618.75,544.00 3621.00,544.00 Z
           M 4478.00,141.21
           C 4478.00,141.21 4494.00,141.21 4494.00,141.21
             4508.46,141.02 4525.11,144.16 4539.00,148.14
             4553.03,152.16 4567.91,159.56 4580.00,167.67
             4644.23,210.76 4672.13,294.56 4673.00,369.00
             4673.00,369.00 4673.97,381.00 4673.97,381.00
             4673.97,381.00 4673.04,390.00 4673.04,390.00
             4673.04,390.00 4673.04,404.00 4673.04,404.00
             4673.04,404.00 4672.09,414.00 4672.09,414.00
             4669.72,447.83 4662.38,480.86 4651.67,513.00
             4621.83,602.50 4562.07,689.77 4485.00,744.71
             4438.67,777.73 4387.64,799.67 4330.00,799.00
             4321.86,798.90 4308.13,796.85 4300.00,795.20
             4218.65,778.67 4173.20,703.00 4158.00,627.00
             4155.39,613.96 4152.16,593.07 4152.00,580.00
             4152.00,580.00 4152.00,540.00 4152.00,540.00
             4152.02,524.18 4156.83,491.92 4160.21,476.00
             4179.99,382.95 4231.48,292.58 4301.00,227.91
             4335.82,195.52 4377.61,167.48 4423.00,152.35
             4436.20,147.95 4454.16,143.95 4468.00,142.28
             4468.00,142.28 4478.00,141.21 4478.00,141.21 Z
           M 3770.00,150.00
           C 3770.00,150.00 4225.00,150.00 4225.00,150.00
             4225.00,150.00 4218.15,178.00 4218.15,178.00
             4218.15,178.00 4204.71,227.00 4204.71,227.00
             4204.71,227.00 4175.85,333.00 4175.85,333.00
             4175.85,333.00 4166.58,367.00 4166.58,367.00
             4166.58,367.00 4161.00,388.00 4161.00,388.00
             4161.00,388.00 4152.00,388.00 4152.00,388.00
             4152.00,388.00 4161.79,344.00 4161.79,344.00
             4168.69,311.55 4174.39,278.23 4174.00,245.00
             4174.00,245.00 4173.08,235.00 4173.08,235.00
             4170.91,207.80 4162.07,182.40 4136.00,169.37
             4125.65,164.19 4107.59,161.14 4096.00,161.00
             4096.00,161.00 4038.00,161.00 4038.00,161.00
             4035.82,161.00 4032.27,160.78 4030.43,162.02
             4028.34,163.43 4027.69,166.72 4026.98,169.00
             4026.98,169.00 4021.71,187.00 4021.71,187.00
             4021.71,187.00 3997.58,271.00 3997.58,271.00
             3997.58,271.00 3893.00,634.00 3893.00,634.00
             3893.00,634.00 3873.12,704.00 3873.12,704.00
             3869.25,718.65 3864.98,731.64 3865.00,747.00
             3865.01,754.01 3865.71,759.28 3870.39,764.96
             3880.35,777.06 3909.98,779.98 3925.00,780.00
             3925.00,780.00 3930.00,780.00 3930.00,780.00
             3930.00,780.00 3941.00,781.00 3941.00,781.00
             3941.00,781.00 3939.00,790.00 3939.00,790.00
             3939.00,790.00 3691.00,790.00 3691.00,790.00
             3691.00,790.00 3693.00,781.00 3693.00,781.00
             3693.00,781.00 3711.00,780.00 3711.00,780.00
             3711.00,780.00 3723.00,779.09 3723.00,779.09
             3746.01,777.41 3770.61,773.09 3784.96,753.00
             3797.63,735.27 3804.61,705.22 3810.71,684.00
             3810.71,684.00 3846.42,559.00 3846.42,559.00
             3846.42,559.00 3923.42,290.00 3923.42,290.00
             3923.42,290.00 3947.42,206.00 3947.42,206.00
             3947.42,206.00 3960.00,161.00 3960.00,161.00
             3960.00,161.00 3918.00,161.00 3918.00,161.00
             3887.04,161.00 3863.27,160.99 3835.00,176.31
             3819.55,184.68 3806.99,196.20 3795.09,209.00
             3784.79,220.07 3775.00,235.06 3767.06,248.00
             3767.06,248.00 3755.74,269.00 3755.74,269.00
             3740.35,299.03 3731.60,322.87 3719.81,354.00
             3719.81,354.00 3711.67,378.00 3711.67,378.00
             3710.85,380.44 3709.57,385.52 3707.49,386.98
             3705.61,388.30 3701.31,388.00 3699.00,388.00
             3699.00,388.00 3706.28,363.00 3706.28,363.00
             3706.28,363.00 3718.28,323.00 3718.28,323.00
             3718.28,323.00 3755.72,198.00 3755.72,198.00
             3755.72,198.00 3764.72,168.00 3764.72,168.00
             3764.72,168.00 3770.00,150.00 3770.00,150.00 Z
           M 4771.00,150.00
           C 4771.00,150.00 4968.00,150.00 4968.00,150.00
             5018.95,150.00 5069.88,148.01 5118.00,168.01
             5140.75,177.47 5161.44,191.99 5174.91,213.00
             5188.49,234.19 5192.04,257.38 5192.00,282.00
             5191.97,304.03 5184.02,338.32 5174.19,358.00
             5166.84,372.72 5154.68,389.40 5142.91,400.83
             5109.41,433.37 5068.56,453.82 5025.00,469.31
             5025.00,469.31 4989.00,479.58 4989.00,479.58
             4982.00,481.13 4972.79,481.89 4967.00,486.00
             4982.70,488.21 5004.59,501.29 5017.00,511.01
             5029.31,520.66 5039.40,530.52 5048.87,543.00
             5057.20,553.97 5064.23,566.02 5068.95,579.00
             5071.90,587.13 5074.90,600.38 5075.00,609.00
             5075.00,609.00 5075.00,616.00 5075.00,616.00
             5074.98,629.40 5070.76,642.23 5067.14,655.00
             5067.14,655.00 5049.79,718.00 5049.79,718.00
             5047.98,726.39 5045.10,736.55 5045.00,745.00
             5044.94,750.72 5044.62,756.95 5047.84,761.98
             5054.17,771.88 5067.56,769.25 5076.00,763.87
             5079.85,761.42 5083.52,757.65 5086.24,754.00
             5094.99,742.24 5099.72,727.85 5104.02,714.00
             5104.02,714.00 5120.02,660.00 5120.02,660.00
             5120.02,660.00 5126.14,639.00 5126.14,639.00
             5126.76,636.80 5127.70,632.39 5129.56,631.02
             5131.36,629.70 5135.75,630.00 5138.00,630.00
             5138.00,630.00 5127.72,666.00 5127.72,666.00
             5127.72,666.00 5116.72,704.00 5116.72,704.00
             5108.24,732.26 5103.15,756.15 5080.00,776.83
             5062.96,792.04 5041.66,799.26 5019.00,799.00
             5006.60,798.85 4993.49,795.01 4985.52,785.00
             4975.28,772.13 4975.82,758.41 4976.00,743.00
             4976.15,730.26 4981.77,710.50 4985.42,698.00
             4985.42,698.00 4996.05,662.00 4996.05,662.00
             5008.59,617.08 5030.45,558.86 4996.05,518.00
             4991.74,512.63 4987.82,509.26 4982.00,505.36
             4975.96,501.31 4965.97,496.57 4959.00,494.43
             4947.32,490.86 4938.05,489.74 4926.00,488.91
             4926.00,488.91 4916.00,488.00 4916.00,488.00
             4916.00,488.00 4834.00,488.00 4834.00,488.00
             4831.72,488.00 4828.24,487.79 4826.27,489.02
             4822.83,491.18 4819.10,507.40 4817.72,512.00
             4817.72,512.00 4794.42,593.00 4794.42,593.00
             4794.42,593.00 4768.00,685.00 4768.00,685.00
             4764.27,697.94 4755.15,728.80 4755.00,741.00
             4754.93,747.63 4754.61,754.02 4758.08,760.00
             4763.08,768.62 4772.82,772.69 4782.00,775.12
             4795.39,778.65 4814.10,779.98 4828.00,780.00
             4828.00,780.00 4842.00,781.00 4842.00,781.00
             4839.41,788.73 4839.61,789.88 4833.00,790.00
             4833.00,790.00 4781.00,790.00 4781.00,790.00
             4781.00,790.00 4588.00,790.00 4588.00,790.00
             4588.00,790.00 4590.00,781.00 4590.00,781.00
             4616.17,778.88 4650.28,780.62 4669.91,759.99
             4682.16,747.12 4688.68,725.80 4693.72,709.00
             4693.72,709.00 4718.14,625.00 4718.14,625.00
             4718.14,625.00 4805.58,320.00 4805.58,320.00
             4805.58,320.00 4826.71,246.00 4826.71,246.00
             4830.52,232.59 4837.94,207.21 4838.00,194.00
             4838.02,189.89 4838.25,185.95 4836.89,182.00
             4829.74,161.15 4796.44,160.22 4778.00,160.00
             4773.79,159.95 4773.05,159.73 4769.00,159.00
             4769.00,159.00 4771.00,150.00 4771.00,150.00 Z
           M 4477.00,152.14
           C 4459.73,154.78 4448.42,156.40 4432.00,163.43
             4383.87,184.01 4345.72,228.42 4318.58,272.00
             4285.98,324.33 4262.45,382.81 4245.58,442.00
             4236.37,474.31 4228.28,506.84 4222.75,540.00
             4220.43,553.93 4217.02,578.30 4216.96,592.00
             4216.96,592.00 4216.96,605.00 4216.96,605.00
             4216.96,605.00 4216.08,613.00 4216.08,613.00
             4216.08,613.00 4216.98,622.00 4216.98,622.00
             4216.98,622.00 4216.98,637.00 4216.98,637.00
             4216.98,637.00 4218.84,657.00 4218.84,657.00
             4224.59,710.77 4244.46,766.83 4302.00,783.14
             4311.36,785.79 4324.30,787.88 4334.00,788.00
             4349.25,788.17 4362.18,787.03 4377.00,783.12
             4432.71,768.43 4475.45,721.36 4504.81,674.00
             4543.40,611.74 4570.14,537.92 4587.87,467.00
             4596.42,432.82 4603.63,398.19 4606.09,363.00
             4606.09,363.00 4607.00,353.00 4607.00,353.00
             4607.00,353.00 4608.00,333.00 4608.00,333.00
             4608.00,333.00 4608.00,318.00 4608.00,318.00
             4608.00,318.00 4607.00,299.00 4607.00,299.00
             4607.00,299.00 4604.13,272.00 4604.13,272.00
             4598.77,233.40 4584.37,190.80 4550.00,168.70
             4541.65,163.33 4531.54,159.12 4522.00,156.43
             4514.26,154.24 4499.01,152.04 4491.00,152.14
             4491.00,152.14 4477.00,152.14 4477.00,152.14 Z
           M 4828.00,477.00
           C 4828.00,477.00 4901.00,477.00 4901.00,477.00
             4901.00,477.00 4939.00,477.00 4939.00,477.00
             4973.97,476.95 5013.43,462.75 5041.00,441.50
             5050.74,433.99 5060.87,423.61 5068.55,414.00
             5091.63,385.11 5104.50,350.50 5113.37,315.00
             5117.18,299.78 5121.98,272.41 5122.00,257.00
             5122.04,234.00 5122.32,214.37 5107.32,195.00
             5088.25,170.36 5056.29,163.92 5027.00,161.91
             5027.00,161.91 5017.00,161.00 5017.00,161.00
             5017.00,161.00 4976.00,161.00 4976.00,161.00
             4976.00,161.00 4964.00,161.91 4964.00,161.91
             4950.58,162.83 4938.10,164.03 4927.00,172.68
             4917.75,179.90 4912.62,191.29 4908.58,202.00
             4908.58,202.00 4890.58,261.00 4890.58,261.00
             4890.58,261.00 4849.42,403.00 4849.42,403.00
             4849.42,403.00 4828.00,477.00 4828.00,477.00 Z
           M 2978.00,245.00
           C 2973.45,249.26 2965.87,262.99 2962.19,269.00
             2962.19,269.00 2934.00,315.00 2934.00,315.00
             2934.00,315.00 2847.58,456.00 2847.58,456.00
             2847.58,456.00 2809.58,518.00 2809.58,518.00
             2805.19,525.09 2793.68,541.96 2792.00,549.00
             2792.00,549.00 2946.00,549.00 2946.00,549.00
             2946.00,549.00 2982.00,549.00 2982.00,549.00
             2984.87,549.00 2993.21,549.73 2994.98,547.40
             2996.07,545.93 2995.03,534.71 2994.98,532.00
             2994.98,532.00 2993.00,500.00 2993.00,500.00
             2993.00,500.00 2992.00,483.00 2992.00,483.00
             2992.00,483.00 2991.00,472.00 2991.00,472.00
             2991.00,472.00 2991.00,463.00 2991.00,463.00
             2991.00,463.00 2990.00,450.00 2990.00,450.00
             2990.00,450.00 2989.00,432.00 2989.00,432.00
             2989.00,432.00 2988.00,422.00 2988.00,422.00
             2988.00,422.00 2988.00,413.00 2988.00,413.00
             2988.00,413.00 2987.00,400.00 2987.00,400.00
             2987.00,400.00 2986.00,382.00 2986.00,382.00
             2986.00,382.00 2985.09,372.00 2985.09,372.00
             2985.09,372.00 2984.00,349.00 2984.00,349.00
             2984.00,349.00 2983.09,339.00 2983.09,339.00
             2983.09,339.00 2982.00,316.00 2982.00,316.00
             2982.00,316.00 2981.00,299.00 2981.00,299.00
             2981.00,299.00 2980.00,289.00 2980.00,289.00
             2980.00,289.00 2980.00,280.00 2980.00,280.00
             2980.00,280.00 2979.00,267.00 2979.00,267.00
             2979.00,267.00 2978.00,245.00 2978.00,245.00 Z" />
</svg>
