<svg xmlns="http://www.w3.org/2000/svg" width="979.728" height="150.557" viewBox="0 0 979.728 150.557">
  <path id="Union_3" data-name="Union 3" d="M4287.765-618.512c0-38.446,29.847-62.066,56.589-62.066,10.524,0,16.908,4.137,21.911,7.931,4.486,3.275,6.729,4.827,9.144,4.827,3.105,0,4.832-1.724,5.176-12.758h1.726l.517,51.549H4381.1c-1.036-20.86-13.112-49.48-36.059-49.48-23.119,0-28.122,26.9-28.122,60,0,33.447,2.415,59.48,27.949,59.48,24.154,0,35.023-23.448,36.576-46.378h1.725c-1.036,20.862-10.7,48.964-41.061,48.964C4315.023-556.445,4287.765-579.2,4287.765-618.512Zm-164.766,0c0-39.308,28.295-62.066,54.174-62.066s54.175,22.758,54.175,62.066-28.3,62.067-54.175,62.067S4123-579.2,4123-618.512Zm29.157,0c0,37.584,3.8,60,25.017,60,21.395,0,25.017-22.413,25.017-60,0-37.239-3.623-60-25.017-60C4155.952-678.509,4152.156-655.751,4152.156-618.512Zm805.647,45,4.313-15c5.866-20-4.141-26.55-17.08-26.55h-17.081l-10.869,37.757c-3.969,14.137-4.831,17.068,14.147,17.413l-.518,1.724H4883.27l.518-1.724c15.873-.345,16.563-3.276,20.7-17.413l23.635-82.41c3.969-14.138,4.832-17.069-10.7-17.413l.519-1.725H4963.5c18.633,0,33.816,6.552,33.816,23.965a36.439,36.439,0,0,1-1.9,11.379c-4.659,15.689-25.362,25-40.372,27.585l-.173.345c9.663,2.414,23.292,15.171,19.841,28.447l-3.795,13.448c-.863,3.62-1.553,6.379-1.381,8.276,0,1.9.863,3.275,2.934,3.275a6.08,6.08,0,0,0,5.176-3.1c1.208-1.724,2.07-3.792,3.623-8.792l4.141-14.31h1.725l-4.141,14.31c-1.9,6.9-3.451,10-5.694,12.241a16.657,16.657,0,0,1-12.25,5.344C4956.6-556.446,4954.869-563.514,4957.8-573.514Zm-16.736-86.548-12.421,42.929h18.806c12.249,0,27.259-5,33.815-26.378a61.063,61.063,0,0,0,2.933-17.068c0-10.862-7.074-16.207-21.221-16.207h-5.521C4945.726-676.785,4945.036-674.027,4941.067-660.061Zm-140.093,58.446a78.048,78.048,0,0,1,2.76-20.344c9.833-34.653,37.957-58.618,61.075-58.618,21.566,0,34.679,20.171,34.679,45.343a77.162,77.162,0,0,1-2.76,20.343c-9.834,34.482-37.784,58.446-60.9,58.446C4814.258-556.446,4800.974-576.617,4800.974-601.616Zm17.252-20.344c-2.932,10.517-5,20.516-5,30.344,0,20,6.557,33.1,23.12,33.1,23.292,0,38.129-28.619,45.893-56.549,2.933-10.517,4.831-20.516,4.831-30.516,0-19.827-6.384-32.93-22.774-32.93C4842.208-678.509,4825.818-649.889,4818.226-621.96Zm-202.549,23.275a82.727,82.727,0,0,1,4.141-24.827c10.352-32.929,40.543-57.066,63.835-57.066,9.489,0,15.183,3.965,18.979,8.1s5.521,8.1,8.454,8.1c3.106,0,5.521-4.655,8.972-16.206h1.725l-13.8,50h-1.725c4.14-17.414,2.416-47.929-22.429-47.929-23.809,0-41.234,28.792-49.688,55-4.313,12.759-6.384,24.138-6.384,33.792,0,20,7.419,30.861,24.5,30.861,22.429,0,39.509-24.654,46.928-45.687h1.725c-6.729,20.343-24.154,48.1-50.723,48.1C4629.134-556.446,4615.677-573.169,4615.677-598.685Zm-540.813,42.068-38.129-99.823c-5.348-14.137-8.453-19.826-19.15-20.689v-1.724h55.9v1.724c-16.563.863-14.665,8.1-10.007,20.689l24.5,65,21.049-58.274c6.9-18.793,9.489-26.55-10.525-27.413v-1.724h36.577v1.724c-13.8.863-16.735,7.759-23.809,27.241l-34.68,93.271Zm639.155-1.552.519-1.724c17.08-.345,17.942-3.276,21.911-17.413l28.467-99.479h-11.9c-16.563,0-26.052,13.1-35.714,42.757h-1.725l13.457-44.826h85.92l-12.25,44.826h-1.725c7.591-29.654,5.52-42.757-10.87-42.757h-12.25l-28.64,99.479c-3.969,14.137-4.832,17.068,12.077,17.413l-.517,1.724Zm-146.3,0,.345-1.724c16.908-1.035,17.08-6.552,16.218-20.689l-1.208-21.205h-40.027l-8.8,14.309c-13.458,21.723-16.045,26.55,5,27.585l-.519,1.724h-37.611l.345-1.724c13.63-1.035,16.563-4.828,30.537-27.585l57.453-93.1h1.725l6.383,100c1.036,14.31,2.934,19.655,13.285,20.689l-.517,1.724Zm-23.463-45.515H4582.9l-3.451-57.412Zm-155.04,45.515v-1.725c11.56-.689,11.56-5.172,11.56-15.861v-85.513c0-10.689,0-15.172-11.56-15.862v-1.724h91.269l.689,44.653h-1.725c-1.553-29.654-14.838-42.411-31.056-42.411h-12.077c-9.144,0-9.317,2.758-9.317,13.448v40.343h8.455c19.84,0,23.809-5.344,24.844-26.377h1.725v55h-1.725c-1.036-21.205-5-26.55-24.844-26.55H4427v46.9c0,9.826,0,13.62,9.317,13.62h9.316c22.084,0,34.162-16.034,35.542-49.308h1.726l-.863,51.377Zm-154.585,0v-1.725c11.9-.689,11.9-5.172,11.9-15.861v-85.513c0-10.689,0-15.172-11.9-15.862v-1.724h50.033v1.724c-11.9.69-11.9,5.173-11.9,15.862v85.513c0,10.689,0,15.172,11.9,15.861v1.725Zm100.455-138.117v-.842c0-5.918,4.109-9.873,10.449-9.873s10.417,3.955,10.417,9.873v.842c0,5.918-4.076,9.873-10.417,9.873S4335.081-690.368,4335.081-696.286Zm2.135-.842v.842c0,4.936,3.138,8.247,8.314,8.247s8.313-3.311,8.313-8.247v-.842c0-4.936-3.138-8.247-8.313-8.247S4337.215-702.065,4337.215-697.129Zm-72.462,4.32h2.1c.323,3.45,3.2,4.8,6.793,4.8,3.365,0,6.114-1.374,6.114-3.9v-.225c0-2.273-2.071-3.311-6.7-3.984-5.306-.757-7.473-2.355-7.473-5.245v-.281c0-2.944,3.008-5.357,7.667-5.357,4.3,0,7.6,1.907,8.12,5.75h-2.07c-.452-2.777-2.782-4.151-6.049-4.151-3.331,0-5.628,1.458-5.628,3.73v.253c0,2.16,1.812,3.114,6.082,3.731,5.144.73,8.087,2.159,8.087,5.47v.281c0,3.169-3.106,5.525-8.25,5.525C4268.635-686.413,4265.012-688.573,4264.753-692.808Zm-40.922,0h2.1c.323,3.45,3.2,4.8,6.792,4.8,3.365,0,6.114-1.374,6.114-3.9v-.225c0-2.273-2.07-3.311-6.7-3.984-5.305-.757-7.474-2.355-7.474-5.245v-.281c0-2.944,3.009-5.357,7.667-5.357,4.3,0,7.6,1.907,8.12,5.75h-2.07c-.454-2.777-2.783-4.151-6.05-4.151-3.332,0-5.629,1.458-5.629,3.73v.253c0,2.16,1.812,3.114,6.082,3.731,5.144.73,8.087,2.159,8.087,5.47v.281c0,3.169-3.1,5.525-8.249,5.525C4227.713-686.413,4224.09-688.573,4223.832-692.808Zm-124.415-3.478v-.842c0-5.918,4.107-9.873,10.448-9.873s10.416,3.955,10.416,9.873v.842c0,5.918-4.075,9.873-10.416,9.873S4099.417-690.368,4099.417-696.286Zm2.135-.842v.842c0,4.936,3.138,8.247,8.313,8.247s8.314-3.311,8.314-8.247v-.842c0-4.936-3.138-8.247-8.314-8.247S4101.552-702.065,4101.552-697.129Zm367.228,10.379v-19.916h2.07v18.345h10.45v1.571Zm-26.883,0-2.619-5.862h-10.806l-2.62,5.862h-2.1l9.09-19.916h2.2l9.058,19.916Zm-12.712-7.434h9.381l-4.69-10.434Zm-32.479,7.434-13.133-17.476v17.476h-2.039v-19.916h2.491L4397-689.415v-17.251h2.069v19.916Zm-89.381,0v-19.916h2.07v19.916Zm-122.247,0v-19.916h14.653v1.57h-12.583v7.35H4198.7v1.6h-11.548v7.826h12.713v1.571Zm-39.208,0v-19.916h13.846v1.57h-11.808v7.49h10.708v1.6h-10.708v9.257Zm-72.754,0-6.146-8.415h-5.6v8.415H4059.3v-19.916h8.9c4.368,0,7.214,1.907,7.214,5.47v.56c0,3.255-2.395,5.106-6.114,5.442l6.244,8.444Zm-11.741-9.985h6.857c3.106,0,5.08-1.291,5.08-3.9v-.56c0-2.609-1.974-3.9-5.08-3.9h-6.857Zm-43.089,9.985v-19.916h8.572c4.368,0,7.214,1.907,7.214,5.47v.56c0,3.563-2.847,5.471-7.214,5.471h-6.5v8.415Zm2.07-9.985h6.534c3.106,0,5.08-1.291,5.08-3.9v-.56c0-2.609-1.974-3.9-5.08-3.9h-6.534Z" transform="translate(-4017.584 707.002)"/>
</svg>
