<?xml version="1.0" encoding="UTF-8" standalone="no"?>
<!DOCTYPE svg PUBLIC "-//W3C//DTD SVG 20010904//EN"
              "http://www.w3.org/TR/2001/REC-SVG-20010904/DTD/svg10.dtd">

<svg xmlns="http://www.w3.org/2000/svg"
     width="57.6889in" height="8.88889in"
     viewBox="0 0 5192 800">
  <path id="Selection #1"
        fill="none" stroke="black" stroke-width="1"
        d="M 475.00,0.23
           C 475.00,0.23 489.00,0.23 489.00,0.23
             503.64,0.00 513.46,0.80 526.00,9.79
             532.99,14.79 539.44,22.95 542.53,31.00
             547.94,45.05 547.38,70.49 540.63,84.00
             537.55,90.14 532.27,96.32 527.00,100.67
             514.90,110.66 499.03,112.17 484.00,112.00
             462.20,111.74 441.37,98.00 434.52,77.00
             431.46,67.64 431.89,59.66 432.00,50.00
             432.10,41.98 434.44,31.95 438.46,25.00
             447.11,10.08 458.77,3.97 475.00,0.23 Z
           M 1106.00,74.00
           C 1109.31,95.08 1128.12,101.72 1147.00,98.87
             1156.47,97.44 1170.42,91.49 1169.86,80.00
             1169.35,69.56 1156.59,65.05 1148.00,63.21
             1127.55,58.83 1099.69,59.00 1095.63,33.00
             1095.03,29.16 1095.63,25.69 1096.77,22.00
             1101.26,7.47 1116.64,0.17 1131.00,0.00
             1131.00,0.00 1144.00,0.00 1144.00,0.00
             1164.75,0.03 1182.51,11.85 1183.00,34.00
             1183.00,34.00 1168.00,34.00 1168.00,34.00
             1164.09,16.86 1152.41,11.64 1136.00,12.01
             1126.31,12.24 1107.42,19.64 1110.69,32.00
             1113.28,41.78 1125.36,45.23 1134.00,47.00
             1153.76,51.03 1184.36,52.03 1184.99,79.00
             1185.54,102.97 1163.71,111.97 1143.00,112.00
             1122.41,112.03 1100.17,108.65 1092.75,86.00
             1091.21,81.30 1091.04,78.85 1091.00,74.00
             1091.00,74.00 1106.00,74.00 1106.00,74.00 Z
           M 1323.00,74.00
           C 1326.02,95.31 1345.06,101.72 1364.00,98.87
             1373.44,97.44 1387.37,91.63 1386.72,80.00
             1386.18,70.29 1373.99,65.37 1366.00,63.37
             1347.05,58.65 1316.02,59.23 1312.53,34.00
             1311.81,30.71 1311.93,27.22 1312.53,24.00
             1316.58,9.19 1332.37,0.18 1347.00,0.00
             1352.65,-0.06 1366.11,-0.38 1371.00,0.67
             1386.94,4.07 1398.63,16.68 1400.00,33.00
             1400.00,33.00 1385.00,34.00 1385.00,34.00
             1381.12,16.98 1369.34,11.64 1353.00,12.01
             1343.23,12.24 1324.64,19.53 1327.61,32.00
             1329.90,41.63 1342.61,45.28 1351.00,47.00
             1370.72,51.02 1401.37,52.30 1401.99,79.00
             1402.54,102.93 1380.69,111.97 1360.00,112.00
             1341.28,112.03 1317.32,108.36 1310.10,88.00
             1308.48,83.43 1308.04,78.80 1308.00,74.00
             1308.00,74.00 1323.00,74.00 1323.00,74.00 Z
           M 1724.00,0.23
           C 1724.00,0.23 1738.00,0.23 1738.00,0.23
             1752.71,0.00 1763.70,1.05 1776.00,10.53
             1781.56,14.81 1787.16,21.59 1790.10,28.00
             1796.86,42.72 1796.86,68.29 1790.10,83.00
             1787.11,89.51 1781.50,96.14 1776.00,100.67
             1764.46,110.20 1748.44,112.17 1734.00,112.00
             1720.36,111.84 1703.61,106.02 1694.17,95.96
             1690.97,92.55 1687.29,87.33 1685.46,83.00
             1678.11,65.54 1678.80,35.51 1690.51,20.00
             1699.70,7.84 1709.59,3.58 1724.00,0.23 Z
           M 2.00,1.00
           C 2.00,1.00 43.00,1.00 43.00,1.00
             55.00,1.00 65.26,0.47 76.00,7.07
             79.60,9.28 82.53,11.41 84.87,15.01
             90.42,23.55 90.42,41.14 85.59,50.00
             83.42,53.97 79.87,57.35 76.00,59.65
             61.69,68.14 33.76,66.00 17.00,66.00
             17.00,66.00 17.00,110.00 17.00,110.00
             17.00,110.00 2.00,110.00 2.00,110.00
             2.00,110.00 2.00,1.00 2.00,1.00 Z
           M 219.00,1.00
           C 219.00,1.00 261.00,1.00 261.00,1.00
             273.13,1.00 285.25,0.75 296.00,7.47
             310.22,16.35 312.10,41.67 301.67,53.98
             295.61,61.15 287.81,63.34 279.00,65.00
             279.00,65.00 297.02,91.00 297.02,91.00
             297.02,91.00 309.00,110.00 309.00,110.00
             304.55,110.00 296.89,110.59 293.09,108.55
             289.37,106.55 286.05,101.40 283.58,98.00
             283.58,98.00 270.42,80.00 270.42,80.00
             267.60,76.01 265.05,71.51 260.99,68.65
             255.14,64.53 241.29,66.00 234.00,66.00
             234.00,66.00 234.00,110.00 234.00,110.00
             234.00,110.00 219.00,110.00 219.00,110.00
             219.00,110.00 219.00,1.00 219.00,1.00 Z
           M 678.00,1.00
           C 678.00,1.00 755.00,1.00 755.00,1.00
             755.00,1.00 755.00,13.00 755.00,13.00
             755.00,13.00 693.00,13.00 693.00,13.00
             693.00,13.00 693.00,49.00 693.00,49.00
             693.00,49.00 749.00,49.00 749.00,49.00
             749.00,49.00 749.00,61.00 749.00,61.00
             749.00,61.00 693.00,61.00 693.00,61.00
             693.00,61.00 693.00,110.00 693.00,110.00
             693.00,110.00 678.00,110.00 678.00,110.00
             678.00,110.00 678.00,1.00 678.00,1.00 Z
           M 886.00,1.00
           C 886.00,1.00 967.00,1.00 967.00,1.00
             967.00,1.00 967.00,13.00 967.00,13.00
             967.00,13.00 901.00,13.00 901.00,13.00
             901.00,13.00 901.00,48.00 901.00,48.00
             901.00,48.00 962.00,48.00 962.00,48.00
             962.00,51.52 962.58,56.68 959.57,59.15
             956.99,61.26 952.19,61.00 949.00,61.00
             949.00,61.00 901.00,61.00 901.00,61.00
             901.00,61.00 901.00,98.00 901.00,98.00
             901.00,98.00 968.00,98.00 968.00,98.00
             968.00,98.00 968.00,110.00 968.00,110.00
             968.00,110.00 886.00,110.00 886.00,110.00
             886.00,110.00 886.00,1.00 886.00,1.00 Z
           M 1533.00,1.00
           C 1533.00,1.00 1548.00,1.00 1548.00,1.00
             1548.00,1.00 1548.00,110.00 1548.00,110.00
             1548.00,110.00 1533.00,110.00 1533.00,110.00
             1533.00,110.00 1533.00,1.00 1533.00,1.00 Z
           M 1927.00,1.00
           C 1930.66,1.01 1939.94,1.47 1943.00,3.02
             1948.27,5.69 1959.27,21.54 1963.37,27.00
             1963.37,27.00 1996.58,71.00 1996.58,71.00
             1996.58,71.00 2009.00,87.00 2009.00,87.00
             2009.00,87.00 2009.00,1.00 2009.00,1.00
             2009.00,1.00 2024.00,1.00 2024.00,1.00
             2024.00,1.00 2024.00,110.00 2024.00,110.00
             2020.29,110.00 2013.25,110.35 2010.00,109.11
             2002.75,106.34 1991.66,89.71 1986.63,83.00
             1986.63,83.00 1958.87,46.00 1958.87,46.00
             1958.87,46.00 1942.00,24.00 1942.00,24.00
             1942.00,24.00 1942.00,110.00 1942.00,110.00
             1942.00,110.00 1927.00,110.00 1927.00,110.00
             1927.00,110.00 1927.00,1.00 1927.00,1.00 Z
           M 2150.00,110.00
           C 2150.00,110.00 2187.31,26.00 2187.31,26.00
             2189.47,21.29 2196.25,5.47 2199.61,2.90
             2201.30,1.61 2203.91,1.19 2206.00,1.18
             2208.11,1.17 2211.67,1.69 2213.39,2.95
             2216.79,5.44 2223.55,21.35 2225.58,26.00
             2225.58,26.00 2263.00,110.00 2263.00,110.00
             2258.24,110.00 2250.15,110.88 2246.55,107.49
             2241.58,102.80 2237.99,83.88 2230.91,80.02
             2228.67,78.80 2225.50,79.00 2223.00,79.00
             2223.00,79.00 2189.00,79.00 2189.00,79.00
             2186.90,79.01 2184.04,78.93 2182.09,79.74
             2174.44,82.92 2171.22,102.14 2165.47,107.57
             2161.90,110.95 2154.68,110.00 2150.00,110.00 Z
           M 2389.00,1.00
           C 2389.00,1.00 2404.00,1.00 2404.00,1.00
             2404.00,1.00 2404.00,98.00 2404.00,98.00
             2404.00,98.00 2459.00,98.00 2459.00,98.00
             2459.00,98.00 2459.00,110.00 2459.00,110.00
             2459.00,110.00 2389.00,110.00 2389.00,110.00
             2389.00,110.00 2389.00,1.00 2389.00,1.00 Z
           M 480.00,12.30
           C 469.68,14.25 460.95,18.19 454.63,27.00
             447.45,37.02 446.87,48.23 447.00,60.00
             447.25,81.37 461.99,98.74 484.00,99.00
             496.39,99.14 505.34,99.51 515.99,91.70
             530.07,81.37 531.18,66.90 531.00,51.00
             530.87,40.15 526.99,29.04 518.83,21.62
             508.46,12.20 493.33,10.97 480.00,12.30 Z
           M 1729.00,12.30
           C 1717.11,14.54 1707.89,19.31 1701.48,30.00
             1696.29,38.66 1695.89,49.21 1696.00,59.00
             1696.26,80.78 1710.21,98.73 1733.00,99.00
             1743.04,99.11 1753.11,99.51 1762.00,93.87
             1777.82,83.83 1780.20,68.05 1780.00,51.00
             1779.87,40.19 1775.91,29.57 1767.99,22.09
             1757.55,12.25 1742.66,10.94 1729.00,12.30 Z
           M 17.00,53.00
           C 17.00,53.00 52.00,53.00 52.00,53.00
             57.94,52.93 64.41,52.11 68.87,47.79
             76.93,39.99 75.80,24.07 66.98,17.50
             62.32,14.02 55.67,13.07 50.00,13.00
             50.00,13.00 17.00,13.00 17.00,13.00
             17.00,13.00 17.00,53.00 17.00,53.00 Z
           M 234.00,53.00
           C 234.00,53.00 269.00,53.00 269.00,53.00
             274.31,52.99 280.28,52.65 285.00,49.91
             296.86,43.02 295.50,22.66 284.00,16.23
             279.65,13.80 273.91,13.06 269.00,13.00
             269.00,13.00 234.00,13.00 234.00,13.00
             234.00,13.00 234.00,53.00 234.00,53.00 Z
           M 2207.00,19.00
           C 2207.00,19.00 2205.00,19.00 2205.00,19.00
             2205.00,19.00 2185.00,67.00 2185.00,67.00
             2185.00,67.00 2228.00,67.00 2228.00,67.00
             2228.00,67.00 2207.00,19.00 2207.00,19.00 Z" />
</svg>
