<?xml version="1.0" encoding="UTF-8" standalone="no"?>
<!DOCTYPE svg PUBLIC "-//W3C//DTD SVG 20010904//EN"
              "http://www.w3.org/TR/2001/REC-SVG-20010904/DTD/svg10.dtd">

<svg xmlns="http://www.w3.org/2000/svg"
     width="57.6889in" height="8.88889in"
     viewBox="0 0 5192 800">
  <path id="Selection"
        fill="none" stroke="black" stroke-width="1"
        d="M 832.00,141.42
           C 853.36,138.82 886.97,143.84 908.00,149.13
             1008.04,174.26 1082.29,253.86 1114.33,350.00
             1128.27,391.82 1133.51,436.08 1133.00,480.00
             1133.00,480.00 1132.00,497.00 1132.00,497.00
             1131.80,513.84 1127.12,540.28 1123.42,557.00
             1104.97,640.54 1056.00,715.20 982.00,759.60
             962.89,771.06 941.43,781.31 920.00,787.58
             891.04,796.04 868.16,799.35 838.00,799.00
             838.00,799.00 828.00,798.09 828.00,798.09
             807.07,796.62 786.93,792.64 767.00,786.00
             677.38,756.13 612.29,686.92 580.05,599.00
             568.55,567.61 562.24,534.25 559.91,501.00
             559.91,501.00 559.00,489.00 559.00,489.00
             559.00,489.00 559.00,450.00 559.00,450.00
             559.00,450.00 559.91,439.00 559.91,439.00
             561.19,420.75 563.62,402.90 567.58,385.00
             586.63,298.71 639.11,218.07 718.00,175.31
             740.16,163.29 765.33,152.87 790.00,147.42
             790.00,147.42 821.00,142.28 821.00,142.28
             821.00,142.28 832.00,141.42 832.00,141.42 Z
           M 1937.00,539.00
           C 1937.00,571.22 1928.02,618.71 1916.95,649.00
             1902.47,688.61 1882.25,725.66 1850.00,753.71
             1769.52,823.72 1643.50,805.82 1562.00,747.57
             1492.95,698.23 1451.48,622.77 1437.59,540.00
             1437.59,540.00 1432.91,499.00 1432.91,499.00
             1432.91,499.00 1432.00,489.00 1432.00,489.00
             1432.00,489.00 1432.00,455.00 1432.00,455.00
             1432.00,455.00 1432.91,443.00 1432.91,443.00
             1435.73,401.96 1445.10,362.65 1461.86,325.00
             1496.92,246.25 1565.02,182.66 1647.00,155.33
             1668.92,148.03 1690.97,143.49 1714.00,141.91
             1714.00,141.91 1726.00,141.00 1726.00,141.00
             1765.95,140.94 1793.69,147.74 1828.00,168.81
             1828.00,168.81 1868.00,197.00 1868.00,197.00
             1876.17,202.38 1885.00,207.81 1895.00,208.67
             1906.31,209.65 1913.60,201.94 1917.13,192.00
             1922.74,176.25 1922.66,157.54 1924.00,141.00
             1924.00,141.00 1933.00,141.00 1933.00,141.00
             1933.00,141.00 1933.00,197.00 1933.00,197.00
             1933.00,197.00 1934.00,214.00 1934.00,214.00
             1934.00,214.00 1934.00,299.00 1934.00,299.00
             1934.00,299.00 1935.00,314.00 1935.00,314.00
             1935.00,314.00 1935.00,398.00 1935.00,398.00
             1935.00,398.00 1936.00,414.00 1936.00,414.00
             1936.00,414.00 1926.00,414.00 1926.00,414.00
             1926.00,372.13 1909.72,314.03 1892.31,276.00
             1867.80,222.48 1826.92,170.11 1767.00,155.88
             1754.75,152.98 1743.55,151.86 1731.00,152.00
             1722.14,152.11 1706.46,154.64 1698.00,157.34
             1685.44,161.35 1673.35,167.21 1663.00,175.45
             1649.99,185.80 1641.19,195.91 1632.42,210.00
             1607.01,250.83 1596.57,305.62 1591.83,353.00
             1591.83,353.00 1588.00,405.00 1588.00,405.00
             1588.00,405.00 1587.00,418.00 1587.00,418.00
             1587.00,418.00 1587.00,438.00 1587.00,438.00
             1587.00,438.00 1586.00,455.00 1586.00,455.00
             1586.00,455.00 1586.00,495.00 1586.00,495.00
             1586.00,495.00 1587.00,512.00 1587.00,512.00
             1587.07,557.84 1589.55,608.01 1598.60,653.00
             1607.53,697.39 1626.08,746.66 1668.00,769.69
             1677.13,774.71 1686.89,778.40 1697.00,780.87
             1704.14,782.61 1717.80,784.91 1725.00,785.00
             1747.47,785.26 1765.31,784.28 1787.00,777.26
             1844.65,758.60 1881.31,710.39 1903.00,656.00
             1914.46,627.25 1920.99,597.53 1925.42,567.00
             1925.42,567.00 1927.72,547.00 1927.72,547.00
             1927.98,544.89 1927.82,541.43 1929.60,540.02
             1931.19,538.76 1935.01,539.01 1937.00,539.00 Z
           M 0.00,150.00
           C 0.00,150.00 296.00,150.00 296.00,150.00
             296.00,152.14 296.30,156.73 294.98,158.40
             293.38,160.42 289.34,159.93 287.00,160.04
             281.03,160.31 272.91,161.78 267.00,163.00
             246.63,167.23 227.71,176.79 226.09,200.00
             225.02,215.23 231.53,234.59 236.33,249.00
             236.33,249.00 267.58,333.00 267.58,333.00
             267.58,333.00 339.58,524.00 339.58,524.00
             339.58,524.00 362.58,585.00 362.58,585.00
             362.58,585.00 373.00,612.00 373.00,612.00
             373.00,612.00 404.05,527.00 404.05,527.00
             404.05,527.00 468.69,348.00 468.69,348.00
             468.69,348.00 489.69,290.00 489.69,290.00
             489.69,290.00 501.42,256.00 501.42,256.00
             505.25,242.92 510.84,226.61 511.00,213.00
             511.08,206.17 511.42,200.61 509.25,194.00
             503.25,175.68 485.54,167.64 468.00,164.00
             468.00,164.00 442.00,160.17 442.00,160.17
             439.13,159.89 432.65,160.46 430.57,158.83
             428.49,157.19 429.00,152.45 429.00,150.00
             429.00,150.00 614.00,150.00 614.00,150.00
             615.71,150.00 619.21,149.87 620.69,150.60
             623.37,151.92 623.74,157.00 621.43,158.83
             619.72,160.17 615.26,160.01 613.00,160.28
             613.00,160.28 596.00,163.23 596.00,163.23
             579.87,167.00 564.59,174.94 553.09,187.01
             528.54,212.77 512.11,262.50 499.58,296.00
             499.58,296.00 424.42,498.00 424.42,498.00
             424.42,498.00 338.95,728.00 338.95,728.00
             338.95,728.00 319.95,779.00 319.95,779.00
             318.57,782.71 314.67,795.93 311.59,797.43
             309.96,798.21 304.99,798.00 303.00,798.00
             303.00,798.00 283.05,745.00 283.05,745.00
             283.05,745.00 236.42,623.00 236.42,623.00
             236.42,623.00 139.42,369.00 139.42,369.00
             139.42,369.00 99.80,265.00 99.80,265.00
             87.76,234.36 75.11,197.87 49.00,176.46
             39.68,168.82 29.58,164.92 18.00,162.13
             18.00,162.13 1.60,158.98 1.60,158.98
             -0.48,157.33 0.00,152.45 0.00,150.00 Z
           M 1150.00,150.00
           C 1150.00,150.00 1415.00,150.00 1415.00,150.00
             1415.00,152.45 1415.48,157.33 1413.40,158.98
             1412.20,159.93 1400.53,160.88 1398.00,161.27
             1388.37,162.76 1377.82,165.50 1370.00,171.53
             1357.47,181.18 1353.18,196.74 1353.00,212.00
             1353.00,212.00 1352.00,231.00 1352.00,231.00
             1352.00,231.00 1352.00,598.00 1352.00,598.00
             1352.00,598.00 1352.00,694.00 1352.00,694.00
             1352.00,709.29 1351.95,738.39 1357.45,752.00
             1363.44,766.83 1375.11,773.58 1390.00,777.12
             1390.00,777.12 1406.00,779.91 1406.00,779.91
             1408.37,780.09 1412.36,779.71 1414.01,781.74
             1415.32,783.36 1415.00,787.91 1415.00,790.00
             1415.00,790.00 1150.00,790.00 1150.00,790.00
             1150.00,790.00 1150.00,781.00 1150.00,781.00
             1167.37,777.89 1184.79,778.90 1198.96,765.82
             1210.38,755.27 1212.98,735.84 1213.00,721.00
             1213.00,721.00 1213.00,636.00 1213.00,636.00
             1213.00,636.00 1213.00,219.00 1213.00,219.00
             1212.97,199.40 1209.32,179.08 1191.00,168.46
             1183.84,164.31 1173.19,162.01 1165.00,160.87
             1162.39,160.51 1153.01,159.96 1151.57,158.83
             1149.49,157.19 1150.00,152.45 1150.00,150.00 Z
           M 1969.00,781.00
           C 1985.92,777.97 2003.29,778.83 2016.91,765.82
             2029.12,754.14 2029.03,737.46 2030.09,722.00
             2030.09,722.00 2031.00,712.00 2031.00,712.00
             2031.00,712.00 2031.00,639.00 2031.00,639.00
             2031.00,639.00 2031.00,365.00 2031.00,365.00
             2031.00,365.00 2031.00,228.00 2031.00,228.00
             2031.00,228.00 2030.04,217.00 2030.04,217.00
             2029.11,195.73 2027.19,176.24 2005.00,166.44
             1998.11,163.40 1987.53,161.21 1980.00,160.29
             1977.29,159.95 1971.74,160.44 1969.99,158.26
             1969.28,157.38 1969.10,156.07 1969.11,154.98
             1969.14,149.28 1973.81,150.01 1978.00,150.00
             1978.00,150.00 2453.00,150.00 2453.00,150.00
             2453.00,150.00 2453.00,167.00 2453.00,167.00
             2453.00,167.00 2454.00,183.00 2454.00,183.00
             2454.00,183.00 2454.00,231.00 2454.00,231.00
             2454.00,231.00 2455.00,248.00 2455.00,248.00
             2455.00,248.00 2455.00,296.00 2455.00,296.00
             2455.00,296.00 2456.00,313.00 2456.00,313.00
             2456.00,313.00 2456.00,363.00 2456.00,363.00
             2456.00,363.00 2457.00,378.00 2457.00,378.00
             2457.00,378.00 2457.00,387.00 2457.00,387.00
             2454.55,387.00 2449.81,387.51 2448.17,385.43
             2446.56,383.37 2447.07,376.03 2446.72,373.00
             2446.72,373.00 2442.87,340.00 2442.87,340.00
             2436.08,291.60 2418.15,239.87 2383.91,204.01
             2364.44,183.62 2337.68,169.64 2310.00,164.61
             2287.78,160.58 2239.48,161.72 2215.00,162.00
             2204.79,162.12 2188.80,164.10 2181.09,171.21
             2172.08,179.53 2170.02,196.29 2170.00,208.00
             2170.00,208.00 2170.00,447.00 2170.00,447.00
             2197.99,447.00 2226.17,448.14 2254.00,445.16
             2271.78,443.26 2291.13,439.27 2306.00,428.79
             2334.86,408.45 2341.68,367.92 2344.09,335.00
             2344.09,335.00 2346.00,307.00 2346.00,307.00
             2346.00,307.00 2355.00,307.00 2355.00,307.00
             2355.00,307.00 2355.00,599.00 2355.00,599.00
             2355.00,599.00 2346.00,599.00 2346.00,599.00
             2346.00,599.00 2344.09,571.00 2344.09,571.00
             2341.92,541.40 2335.62,501.61 2312.00,481.30
             2294.57,466.31 2264.70,459.27 2242.00,459.00
             2242.00,459.00 2223.00,458.00 2223.00,458.00
             2223.00,458.00 2170.00,458.00 2170.00,458.00
             2170.00,458.00 2170.00,641.00 2170.00,641.00
             2170.00,641.00 2170.00,733.00 2170.00,733.00
             2170.14,744.28 2172.69,760.62 2181.18,768.68
             2190.29,777.31 2205.95,778.98 2218.00,779.00
             2253.47,779.06 2294.24,781.50 2328.00,769.92
             2340.94,765.49 2351.56,760.57 2363.00,753.00
             2425.44,711.63 2446.79,629.42 2453.83,559.00
             2453.83,559.00 2457.00,518.00 2457.00,518.00
             2457.00,518.00 2466.00,518.00 2466.00,518.00
             2466.00,518.00 2466.00,535.00 2466.00,535.00
             2466.00,535.00 2465.00,551.00 2465.00,551.00
             2465.00,551.00 2465.00,594.00 2465.00,594.00
             2465.00,594.00 2464.00,611.00 2464.00,611.00
             2464.00,611.00 2464.00,654.00 2464.00,654.00
             2464.00,654.00 2463.00,671.00 2463.00,671.00
             2463.00,671.00 2463.00,715.00 2463.00,715.00
             2463.00,715.00 2462.00,730.00 2462.00,730.00
             2462.00,730.00 2462.00,773.00 2462.00,773.00
             2462.00,773.00 2461.00,790.00 2461.00,790.00
             2461.00,790.00 2084.00,790.00 2084.00,790.00
             2084.00,790.00 1996.00,790.00 1996.00,790.00
             1996.00,790.00 1976.00,790.00 1976.00,790.00
             1976.00,790.00 1970.02,788.40 1970.02,788.40
             1970.02,788.40 1969.00,781.00 1969.00,781.00 Z
           M 835.00,152.14
           C 820.35,154.39 811.99,154.90 798.00,161.31
             750.82,182.92 736.78,231.59 726.35,278.00
             721.70,298.69 719.87,319.96 717.83,341.00
             717.83,341.00 715.91,368.00 715.91,368.00
             715.91,368.00 715.00,380.00 715.00,380.00
             715.00,380.00 714.00,400.00 714.00,400.00
             714.00,400.00 714.00,420.00 714.00,420.00
             714.00,420.00 713.00,437.00 713.00,437.00
             713.00,437.00 713.00,503.00 713.00,503.00
             713.00,503.00 714.00,520.00 714.00,520.00
             714.06,561.44 717.08,612.29 724.42,653.00
             734.03,706.27 753.11,768.14 812.00,783.85
             819.36,785.81 832.46,787.91 840.00,788.00
             856.17,788.19 872.68,786.88 888.00,781.31
             937.23,763.38 955.65,711.01 965.20,664.00
             977.65,602.70 978.00,531.62 978.00,469.00
             978.00,404.38 977.52,332.15 963.58,269.00
             952.79,220.15 931.39,169.22 878.00,155.87
             870.35,153.96 858.83,152.10 851.00,152.14
             851.00,152.14 835.00,152.14 835.00,152.14 Z" />
</svg>
